# xmcd
#
# Track frame offsets: 
#        150
#        20732
#        29883
#        41781
#        54176
#        63600
#        73452
#        82266
#        91354
#        101815
#        113581
#        123418
#        131643
#        138633
#        147581
#        159304
#        171298
#        181567
#        191896
#        202914
#        213619
#        223038
#        234085
#        244815
#        255549
#        271721
#
# Disc length: 3738 seconds
#
# Revision: 0
# Processed by: cddbd v1.5.2PL0 Copyright (c) Steve Scherf et al.
# Submitted via: ExactAudioCopy v0.95b3
#
DISCID=920e981a
DTITLE=Elvis  - The King - Cd 1  FLAC
DYEAR=1900
DGENRE=
TTITLE0=Suspicious Minds
TTITLE1=Blue Suede Shoes
TTITLE2=Jailhouse Rock
TTITLE3=Love Me Tender
TTITLE4=Don't Be Cruel
TTITLE5=King Creole
TTITLE6=Hard Headed Woman
TTITLE7=All Shook Up
TTITLE8=Hound Dog
TTITLE9=Too Much
TTITLE10=Heartbreak Hotel
TTITLE11=( Let Me Be  Your ) Teddy Bear
TTITLE12=( Let's Have A ) Party
TTITLE13=That's All Right
TTITLE14=One Night
TTITLE15=( Now And Then There's ) A Fool Such As I
TTITLE16=A Big Hunk O' Love
TTITLE17=Wear My Ring Around Your Neck
TTITLE18=Crying In The Chapel
TTITLE19=Stuck On You
TTITLE20=Wooden Heart
TTITLE21=Viva Las Vegas
TTITLE22=(You're The) Devil In Disguise
TTITLE23=Guitar Man
TTITLE24=A Little Less Conversation ( JXL single version )
TTITLE25=Welcome To My World ( Bonus Track )
EXTD=
EXTT0=
EXTT1=
EXTT2=
EXTT3=
EXTT4=
EXTT5=
EXTT6=
EXTT7=
EXTT8=
EXTT9=
EXTT10=
EXTT11=
EXTT12=
EXTT13=
EXTT14=
EXTT15=
EXTT16=
EXTT17=
EXTT18=
EXTT19=
EXTT20=
EXTT21=
EXTT22=
EXTT23=
EXTT24=
EXTT25=
PLAYORDER=
